<?xml version="1.0" encoding="utf-8"?>
<!-- Generator: Adobe Illustrator 22.1.0, SVG Export Plug-In . SVG Version: 6.00 Build 0)  -->
<svg version="1.1" id="Capa_1" xmlns="http://www.w3.org/2000/svg" xmlns:xlink="http://www.w3.org/1999/xlink" x="0px" y="0px"
	 viewBox="0 0 57.9 57.9" style="enable-background:new 0 0 57.9 57.9;" xml:space="preserve">
<style type="text/css">
	.st0{fill:#BDBDBD;}
	.st1{fill:#2E2C2C;}
</style>
<g>
	<g>
		<path class="st0" d="M28.9,54.6C13.2,43.1,6.2,32.9,3.1,26.4c-2-4.3-2.2-9.3-0.5-13.6C4.3,8.7,7.3,5.6,11.2,4c1.7-0.7,3.3-1,5-1
			c7,0,11.5,6.3,11.6,6.4l1.2,1.7l1.2-1.7c0-0.1,4.6-6.4,11.6-6.4c1.6,0,3.3,0.3,5,1c3.9,1.6,6.9,4.7,8.5,8.8
			c1.7,4.4,1.5,9.4-0.5,13.6C51.8,32.9,44.8,43.1,28.9,54.6z"/>
		<path class="st1" d="M16.1,4.5c6.2,0,10.3,5.7,10.3,5.7l2.4,3.5l2.5-3.5c0-0.1,4.2-5.7,10.4-5.7c1.4,0,2.9,0.3,4.4,0.9
			c3.5,1.4,6.2,4.2,7.7,7.9c1.6,4,1.4,8.5-0.4,12.5c-2.9,6.2-9.6,15.9-24.5,27C14.1,41.7,7.4,32,4.5,25.7c-1.8-3.9-2-8.4-0.4-12.5
			c1.4-3.7,4.2-6.5,7.7-7.9C13.2,4.8,14.7,4.5,16.1,4.5 M16.1,1.5c-1.7,0-3.6,0.3-5.5,1.1C1.2,6.4-2.5,17.8,1.8,27
			c3.7,7.9,11.5,18.2,27.2,29.5C44.6,45.2,52.5,34.9,56.2,27c4.3-9.2,0.6-20.6-8.8-24.4c-2-0.8-3.8-1.1-5.5-1.1
			c-7.9,0-12.8,7-12.8,7S24,1.5,16.1,1.5L16.1,1.5z"/>
	</g>
</g>
</svg>
